<svg width="11" height="15" viewBox="0 0 11 15" fill="none" xmlns="http://www.w3.org/2000/svg">
<path d="M4.74 7.2C4.26 7.2 3.81333 7.14667 3.4 7.04L2.66 7.78C2.88667 7.9 3.19333 8 3.58 8.08C3.96667 8.16 4.59333 8.24 5.46 8.32C6.78 8.44 7.74 8.75333 8.34 9.26C8.94 9.76667 9.24 10.4667 9.24 11.36C9.24 11.9467 9.08 12.5 8.76 13.02C8.44 13.5533 7.94667 13.98 7.28 14.3C6.61333 14.6333 5.76 14.8 4.72 14.8C3.30667 14.8 2.16667 14.5333 1.3 14C0.433333 13.48 0 12.6933 0 11.64C0 10.7467 0.433333 9.97333 1.3 9.32C1.03333 9.2 0.8 9.07333 0.6 8.94C0.413333 8.80667 0.246667 8.66667 0.1 8.52V8.06L1.84 6.22C1.06667 5.54 0.68 4.66667 0.68 3.6C0.68 2.93333 0.84 2.32667 1.16 1.78C1.49333 1.23333 1.96 0.8 2.56 0.48C3.16 0.16 3.88667 0 4.74 0C5.3 0 5.82 0.08 6.3 0.24H10.06V1.8L8.36 1.92C8.62667 2.42667 8.76 2.98667 8.76 3.6C8.76 4.26667 8.6 4.87333 8.28 5.42C7.96 5.96667 7.49333 6.4 6.88 6.72C6.28 7.04 5.56667 7.2 4.74 7.2ZM4.74 5.24C5.26 5.24 5.68667 5.1 6.02 4.82C6.36667 4.54 6.54 4.14 6.54 3.62C6.54 3.1 6.36667 2.7 6.02 2.42C5.68667 2.14 5.26 2 4.74 2C4.19333 2 3.75333 2.14 3.42 2.42C3.08667 2.7 2.92 3.1 2.92 3.62C2.92 4.14 3.08667 4.54 3.42 4.82C3.75333 5.1 4.19333 5.24 4.74 5.24ZM2.34 11.38C2.34 11.8733 2.56667 12.24 3.02 12.48C3.48667 12.7333 4.05333 12.86 4.72 12.86C5.36 12.86 5.88 12.7267 6.28 12.46C6.68 12.2067 6.88 11.86 6.88 11.42C6.88 11.06 6.74667 10.76 6.48 10.52C6.22667 10.28 5.71333 10.1333 4.94 10.08C4.39333 10.04 3.88667 9.98 3.42 9.9C3.03333 10.1133 2.75333 10.3467 2.58 10.6C2.42 10.8533 2.34 11.1133 2.34 11.38Z" fill="#1363DF"/>
</svg>
